<?xml version="1.0" encoding="iso-8859-1"?>
<!-- Generator: Adobe Illustrator 19.0.0, SVG Export Plug-In . SVG Version: 6.00 Build 0)  -->
<svg version="1.1" id="Layer_1" xmlns="http://www.w3.org/2000/svg" xmlns:xlink="http://www.w3.org/1999/xlink" x="0px" y="0px"
	 viewBox="0 0 495.996 495.996" style="enable-background:new 0 0 495.996 495.996;" xml:space="preserve">
<g>
	<g>
		<path d="M495.294,244.776c-36.216-79.176-135.6-132.372-247.296-132.372c-111.704,0-211.084,53.192-247.296,132.368
			c-0.936,2.044-0.936,4.396,0,6.444c36.224,79.176,135.608,132.376,247.296,132.376c111.68,0,211.064-53.196,247.296-132.372
			C496.23,249.176,496.23,246.824,495.294,244.776z M247.998,368.096c-104.188,0-196.712-48.124-231.688-120.1
			C51.274,176.02,143.794,127.9,247.998,127.9c104.196,0,196.716,48.12,231.688,120.096
			C444.702,319.972,352.182,368.096,247.998,368.096z"/>
	</g>
</g>
<g>
	<g>
		<path d="M316.294,168.636c-19.032-16.436-43.396-25.484-68.616-25.484c-25.26,0-49.696,9.092-68.788,25.604
			c-23.16,20.02-36.436,49.048-36.436,79.616c0,58.036,47.208,105.252,105.228,105.252c58.032,0,105.244-47.22,105.244-105.252
			C352.918,217.7,339.574,188.644,316.294,168.636z M302.13,279.472c-17.14,0-31.084-13.936-31.084-31.084
			c0-9.036,3.928-17.6,10.768-23.52c5.636-4.872,12.856-7.568,20.316-7.568c7.452,0,14.648,2.68,20.268,7.536
			c6.872,5.908,10.812,14.484,10.812,23.552C333.214,265.536,319.266,279.472,302.13,279.472z"/>
	</g>
</g>
<g>
</g>
<g>
</g>
<g>
</g>
<g>
</g>
<g>
</g>
<g>
</g>
<g>
</g>
<g>
</g>
<g>
</g>
<g>
</g>
<g>
</g>
<g>
</g>
<g>
</g>
<g>
</g>
<g>
</g>
</svg>
