<?xml version="1.0" encoding="iso-8859-1"?>
<!-- Generator: Adobe Illustrator 16.0.0, SVG Export Plug-In . SVG Version: 6.00 Build 0)  -->
<!DOCTYPE svg PUBLIC "-//W3C//DTD SVG 1.1//EN" "http://www.w3.org/Graphics/SVG/1.1/DTD/svg11.dtd">
<svg version="1.1" id="Capa_1" xmlns="http://www.w3.org/2000/svg" xmlns:xlink="http://www.w3.org/1999/xlink" x="0px" y="0px"
	 width="466.119px" height="466.119px" viewBox="0 0 466.119 466.119" style="enable-background:new 0 0 466.119 466.119;"
	 xml:space="preserve">
<g>
	<g>
		<path d="M199.203,221.43c23.254,13.427,61.111,27.919,81.717,27.921h0.007c8.381,0,14.074-2.498,16.914-7.424
			c1.012-1.748,1.276-3.781,0.754-5.711c-0.519-1.943-1.762-3.567-3.508-4.577l-106.552-61.517c-0.053-0.03-0.108-0.053-0.16-0.082
			c0.052-0.856,0.082-1.717,0.082-2.586c0-18.74-11.869-34.756-28.485-40.931c3.928-6.712,5.727-16.543,5.727-30.851
			c0-17.837-2.781-40.29-7.258-58.601C152.254,11.78,144.53,0,134.127,0c-4.151,0-7.528,3.379-7.528,7.53v120.27
			c-14.998,6.916-25.441,22.085-25.441,39.655c0,3.321,0.385,6.552,1.094,9.662c-7.58,0.207-16.729,3.536-28.709,10.451
			c-15.452,8.923-33.507,22.558-47.118,35.585c-18.813,18.002-25.15,30.583-19.949,39.592c1.004,1.74,2.627,2.986,4.586,3.513
			c0.633,0.167,1.285,0.253,1.934,0.253c1.32,0,2.623-0.349,3.766-1.009l105.312-60.803c0.697,0.427,1.414,0.824,2.135,1.212
			L98.682,456.209c-0.258,2.531,0.567,5.055,2.274,6.943c1.705,1.891,4.131,2.967,6.679,2.967h74.354
			c2.545,0,4.971-1.076,6.678-2.967c1.705-1.889,2.533-4.412,2.273-6.943l-25.53-250.298c3.306-1.778,6.359-3.961,9.086-6.495
			C178.005,206.77,185.82,213.703,199.203,221.43z"/>
		<path d="M461.203,299.102c-0.379-1.412-1.28-2.592-2.549-3.326l-77.408-44.689c-0.036-0.021-0.075-0.039-0.114-0.061
			c0.037-0.621,0.061-1.248,0.061-1.879c0-13.613-8.623-25.249-20.694-29.734c2.854-4.876,4.159-12.019,4.159-22.412
			c0-12.958-2.02-29.271-5.271-42.572c-4.494-18.374-10.107-26.933-17.662-26.933c-3.018,0-5.473,2.455-5.473,5.472v87.372
			c-10.896,5.024-18.48,16.044-18.48,28.81c0,2.412,0.279,4.76,0.791,7.02c-5.504,0.15-12.152,2.568-20.854,7.592
			c-11.228,6.482-24.345,16.389-34.232,25.852c-13.664,13.08-18.271,22.22-14.492,28.765c0.73,1.265,1.908,2.169,3.334,2.552
			c0.459,0.121,0.932,0.184,1.404,0.184c0.957,0,1.903-0.254,2.733-0.732l76.507-44.172c0.508,0.311,1.026,0.6,1.551,0.881
			L315.969,458.92c-0.189,1.84,0.412,3.674,1.652,5.045c1.237,1.373,3.002,2.154,4.852,2.154h54.016
			c1.853,0,3.613-0.781,4.853-2.154c1.239-1.371,1.842-3.205,1.651-5.045l-18.543-181.837c2.398-1.292,4.617-2.877,6.601-4.719
			c2.549,5.344,8.227,10.38,17.946,15.993c16.896,9.754,44.396,20.283,59.367,20.283h0.004c6.089,0,10.226-1.813,12.287-5.393
			C461.389,301.98,461.582,300.502,461.203,299.102z"/>
	</g>
</g>
<g>
</g>
<g>
</g>
<g>
</g>
<g>
</g>
<g>
</g>
<g>
</g>
<g>
</g>
<g>
</g>
<g>
</g>
<g>
</g>
<g>
</g>
<g>
</g>
<g>
</g>
<g>
</g>
<g>
</g>
</svg>
